<?xml version="1.0" standalone="no"?><!DOCTYPE svg PUBLIC "-//W3C//DTD SVG 1.1//EN" "http://www.w3.org/Graphics/SVG/1.1/DTD/svg11.dtd"><svg t="1771899387845" class="icon" viewBox="0 0 1024 1024" version="1.1" xmlns="http://www.w3.org/2000/svg" p-id="5200" id="mx_n_1771899387846" xmlns:xlink="http://www.w3.org/1999/xlink" width="200" height="200"><path d="M175.61981 822.786279l32.911574 0c5.471618 0 10.963703 0 16.446577 0l575.888076 0c5.480828 0 10.952446 0 14.624069 0l34.733059 0c14.624069-3.6399 21.927405-14.637372 25.576515-36.553521 0-1.829671 0-5.514597 0-10.984169 0-7.323802-1.820462-14.626115-5.469572-20.1182-9.143241-40.213887-29.238928-102.377692-32.902364-113.341395-9.131985-23.756053-23.77038-47.526433-42.056861-69.485561l-14.624069-14.603603c-10.963703-10.986215-20.095687-18.287505-27.41949-27.41949-12.795421-20.1182-25.601074-40.213887-38.394449-56.692187-23.77038-40.202631-32.913621-82.259492-32.913621-129.797182l1.831718-32.911574c10.952446-1.831718 21.949918-1.831718 29.250184 0l1.831718 1.831718c10.963703 9.154497 18.287505 20.1182 20.106943 34.742269 0 5.492084 0 9.120728-1.820462 14.626115 0 1.817392-1.842974 5.492084-5.494131 10.961656-3.660366 5.494131-5.480828 9.154497-7.300266 12.795421-1.842974 5.492084-3.671623 12.817933-1.842974 20.1182-3.64911 18.287505 12.795421 34.742269 47.537689 51.17759 32.902364 12.815887 74.970482 23.778566 126.133745 29.27372 16.46909 1.829671 27.421536-1.854231 36.576033-12.817933 1.828648-1.831718 3.64911-3.6399 3.64911-5.471618 1.831718 0 1.831718 0 1.831718-1.829671 9.143241-9.154497 12.795421-27.430746 12.795421-54.861492-5.482875-69.443605-40.213887-120.642684-106.015545-155.384953-71.307046-36.553521-180.997284-54.828746-327.259462-54.828746l-1.820462 0c-146.252968 0-255.954463 18.275225-327.248206 54.828746-65.824171 34.742269-102.377692 85.940324-107.869776 155.384953 0 27.430746 3.662413 45.705971 12.795421 54.861492 1.831718 1.829671 1.831718 1.829671 1.831718 1.829671 1.828648 1.831718 3.671623 3.6399 3.671623 5.471618 9.131985 10.963703 21.927405 14.646582 38.370913 12.817933 51.200102-5.494131 93.243661-16.457834 124.325563-29.27372 34.745339-16.435321 51.188846-32.890085 49.357128-51.17759 0-7.300266 0-14.626115-3.651157-20.1182 0-3.6399-3.660366-7.300266-5.480828-12.795421-3.671623-5.469572-5.480828-9.143241-7.323802-10.961656-1.831718-5.505387-1.831718-9.134031 0-14.626115 1.842974-14.624069 9.143241-25.587771 18.287505-34.742269l1.820462-1.831718c9.154497-1.831718 18.298761-1.831718 29.262464 0l1.820462 32.911574c1.828648 47.537689-9.134031 89.594551-31.081902 129.797182-12.783141 16.4783-27.41028 36.573987-40.213887 56.692187-7.312546 9.131985-16.4783 16.432251-25.599028 27.41949l-16.446577 14.603603c-18.287505 21.959128-31.081902 45.728484-40.234353 69.485561-5.471618 10.963703-23.7581 73.127508-34.733059 113.341395-3.6399 5.492084-3.6399 12.795421-3.6399 20.1182-1.829671 5.469572-1.829671 9.154497-1.829671 10.984169C151.84943 808.148907 160.993694 819.146379 175.61981 822.786279L175.61981 822.786279zM400.4893 287.122323l1.808182 0c40.2364 5.494131 74.979692 9.131985 109.712751 9.131985l0 0c34.719756 0 71.284533-3.637854 109.688191-9.131985l3.662413 0 0 67.655889c0 14.626115-5.480828 23.7581-18.298761 29.227672-5.480828 5.505387-14.614859 7.323802-25.576515 9.143241l0 0 0 0c-5.482875 0-10.997472 0-14.637372 0l-1.831718 0L460.811154 393.149125l-1.831718 0c-5.480828 0-10.961656 0-14.612813 0l0 0 0 0c-10.986215-1.820462-20.1182-3.637854-27.430746-9.143241-10.963703-5.469572-16.446577-14.601556-16.446577-29.227672L400.4893 287.122323 400.4893 287.122323zM491.8818 782.572392c-49.345871-5.494131-89.583295-23.7581-118.822223-56.703443-31.079856-34.710546-47.526433-76.754105-47.526433-126.146025 0-51.155077 16.446577-93.211938 47.526433-127.965463 29.238928-32.899294 69.476351-51.17759 118.822223-56.647161l0 0 1.842974 0 0 0 1.831718 0 0 0 3.64911 0 0 0 1.831718 0 0 0 3.662413 0 0 0 1.817392 0 0 0 3.651157 0 0 0 1.842974 0 0 0 3.6399 0 0 0 1.840928 0 0 0 3.651157 0 0 0 1.831718 0 0 0 3.660366 0 0 0 1.820462 0 0 0 3.662413 0 0 0 1.820462 0 0 0c49.357128 5.469572 87.760786 23.746844 118.842689 56.647161 31.070646 34.753525 45.705971 76.81141 45.705971 127.965463 0 49.39192-14.635325 91.435479-45.705971 126.146025-31.081902 32.945343-69.485561 51.209312-118.842689 56.703443l0 0-1.820462 0 0 0-3.662413 0 0 0-1.820462 0 0 0-3.660366 0 0 0-1.831718 0 0 0-3.651157 0 0 0-1.840928 0 0 0-3.6399 0 0 0-1.842974 0 0 0-3.651157 0 0 0-1.817392 0 0 0-3.662413 0 0 0-1.831718 0 0 0-3.64911 0 0 0-1.831718 0 0 0L491.8818 782.572392 491.8818 782.572392z" fill="#0062B1" p-id="5201"></path><path d="M617.066941 598.917582c0 58.926064-47.78226 106.654089-106.651019 106.654089-58.903551 0-106.676601-47.727001-106.676601-106.654089 0-58.935274 47.77305-106.663298 106.676601-106.663298C569.284681 492.255307 617.066941 539.982308 617.066941 598.917582z" fill="#0062B1" p-id="5202"></path></svg>